# xmcd
#
# Track frame offsets: 
#        150
#        20669
#        38698
#        56838
#        74619
#        91452
#        109194
#        127245
#        145669
#        161958
#        175856
#        193102
#        215336
#        232094
#        252038
#        274279
#        292154
#        305987
#        328699
#        340372
#
# Disc length: 4808 seconds
#
# Revision: 0
# Processed by: cddbd v1.5.2PL0 Copyright (c) Steve Scherf et al.
# Submitted via: ExactAudioCopy v0.99pb5
#
DISCID=4c12c614
DTITLE=Ricky Martin - Music History CD2
DYEAR=2001
DGENRE=General Latin Pop
TTITLE0=La Bomba
TTITLE1=Are You In It For Love
TTITLE2=Be Careful(Cuidado Con M1 Corazon)duet with Madonna
TTITLE3=Marsia Baila
TTITLE4=One Night Man
TTITLE5=Asi Es La Vida
TTITLE6=Livin' La Vida Loca(Spanish Version)
TTITLE7=Perdido Sin Ti
TTITLE8=Love You For A Day
TTITLE9=Hagamos El Amor
TTITLE10=Dame Mas(Loaded)
TTITLE11=Corazonado
TTITLE12=If You Ever Saw Her
TTITLE13=The Touch
TTITLE14=La Copa De La Vida(Dance Rap Edit)
TTITLE15=La Diosa Del Carnaval(Spanish Eyes)
TTITLE16=Shake Your Bon-Bon
TTITLE17=Cambia La Piel
TTITLE18=Donde Esteras
TTITLE19=She Bangs(Spanish Version)
EXTD=
EXTT0=
EXTT1=
EXTT2=
EXTT3=
EXTT4=
EXTT5=
EXTT6=
EXTT7=
EXTT8=
EXTT9=
EXTT10=
EXTT11=
EXTT12=
EXTT13=
EXTT14=
EXTT15=
EXTT16=
EXTT17=
EXTT18=
EXTT19=
PLAYORDER=
